<svg width="24" height="24" viewBox="0 0 24 24" fill="none" xmlns="http://www.w3.org/2000/svg">
<mask id="mask0_146_1913" style="mask-type:alpha" maskUnits="userSpaceOnUse" x="0" y="0" width="24" height="24">
<rect width="24" height="24" fill="#D9D9D9"/>
</mask>
<g mask="url(#mask0_146_1913)">
<path d="M4.8 19.0741C4.57333 19.0741 4.38338 18.9992 4.23013 18.8495C4.07671 18.6996 4 18.5139 4 18.2923C4 18.0708 4.07671 17.8852 4.23013 17.7355C4.38338 17.586 4.57333 17.5112 4.8 17.5112H5.92827V9.73541C5.92827 8.33398 6.37102 7.09485 7.25653 6.01803C8.14187 4.9412 9.27858 4.25247 10.6667 3.95183V3.30261C10.6667 2.94083 10.7962 2.63324 11.0552 2.37984C11.3142 2.12661 11.6287 2 11.9987 2C12.3688 2 12.6837 2.12661 12.9435 2.37984C13.2034 2.63324 13.3333 2.94083 13.3333 3.30261V3.95183C14.7214 4.25247 15.8581 4.9412 16.7435 6.01803C17.629 7.09485 18.0717 8.33398 18.0717 9.73541V17.5112H19.2C19.4267 17.5112 19.6166 17.5861 19.7699 17.7358C19.9233 17.8857 20 18.0714 20 18.293C20 18.5145 19.9233 18.7001 19.7699 18.8498C19.6166 18.9993 19.4267 19.0741 19.2 19.0741H4.8ZM11.9981 22C11.4675 22 11.0138 21.8155 10.6371 21.4467C10.2602 21.0778 10.0717 20.6343 10.0717 20.1162H13.9283C13.9283 20.636 13.7393 21.0799 13.3613 21.448C12.9834 21.816 12.529 22 11.9981 22ZM7.52827 17.5112H16.4717V9.73541C16.4717 8.52902 16.0352 7.49935 15.1621 6.64641C14.2889 5.79328 13.2348 5.36672 12 5.36672C10.7652 5.36672 9.71111 5.79328 8.83787 6.64641C7.9648 7.49935 7.52827 8.52902 7.52827 9.73541V17.5112Z" fill="#1C1B1F"/>
</g>
</svg>
