<svg width="75" height="19" viewBox="0 0 75 19" fill="none" xmlns="http://www.w3.org/2000/svg">
<path d="M17.4199 7.6395H3.08496C2.44238 7.6395 1.98438 7.52328 1.71094 7.29086C1.4375 7.04477 1.30078 6.62094 1.30078 6.01938V3.06625H14.8359V2.41H1.30078V0.420746H17.4199V5.0145H3.86426V5.67075H17.4199V7.6395ZM0.685547 8.39828H8.19141V7.10629H10.5293V8.39828H18.0352V10.4286H0.685547V8.39828ZM9.38086 8.89047C10.8164 8.89047 12.1084 9.30746 13.2568 10.1414C14.5283 11.0711 15.1641 12.2401 15.1641 13.6483C15.1641 15.1522 14.5693 16.3963 13.3799 17.3807C12.2588 18.3241 10.9258 18.7957 9.38086 18.7957C7.84961 18.7957 6.52344 18.3241 5.40234 17.3807C4.21289 16.3963 3.61816 15.1522 3.61816 13.6483C3.61816 12.2401 4.25391 11.0711 5.52539 10.1414C6.67383 9.30746 7.95898 8.89047 9.38086 8.89047ZM9.38086 10.5106C8.49219 10.5106 7.71289 10.8045 7.04297 11.3924C6.35938 12.0213 6.01758 12.7733 6.01758 13.6483C6.01758 14.5096 6.35938 15.2547 7.04297 15.8836C7.71289 16.4852 8.49219 16.786 9.38086 16.786C10.2422 16.786 11.0078 16.4852 11.6777 15.8836C12.375 15.2547 12.7236 14.5096 12.7236 13.6483C12.7236 12.7733 12.375 12.0213 11.6777 11.3924C11.0078 10.8045 10.2422 10.5106 9.38086 10.5106ZM27.1168 0.0516052H29.8034C29.8034 1.47348 30.4733 2.53989 31.8131 3.25082C32.9069 3.83871 34.4791 4.19418 36.5299 4.31723V6.42953C34.862 6.38852 33.3444 6.14243 31.9772 5.69125C30.3502 5.14438 29.1813 4.37192 28.4704 3.37387C27.7321 4.37192 26.5495 5.14438 24.9225 5.69125C23.5553 6.14243 22.0514 6.38852 20.4108 6.42953V4.33774C22.4479 4.20102 24.0133 3.83871 25.1071 3.25082C26.4469 2.53989 27.1168 1.47348 27.1168 0.0516052ZM33.3922 6.36801V8.37778H37.1452V10.4901H19.7955V8.37778H23.5485V6.36801H25.9274V8.37778H31.0133V6.36801H33.3922ZM27.1168 11.9666H29.8034C29.8034 13.1424 30.4733 14.0243 31.8131 14.6122C32.9616 15.1043 34.5817 15.3846 36.6735 15.453V17.6883C34.9098 17.62 33.4059 17.4217 32.1618 17.0936C30.3981 16.6288 29.1676 15.9315 28.4704 15.0018C27.7594 15.9315 26.5084 16.6288 24.7174 17.0936C23.4459 17.4081 21.9625 17.5995 20.2672 17.6678V15.4735C22.3317 15.4051 23.9381 15.118 25.0866 14.6122C26.4401 14.0243 27.1168 13.1424 27.1168 11.9666Z" fill="#223485"/>
<path d="M53.261 3.55844V2.49203H39.5208V0.420746H55.6399V7.53696H53.261V5.52719H39.5208V3.55844H53.261ZM38.9055 6.73715H56.5218V8.72641H38.9055V6.73715ZM53.2405 12.6639V11.7411H39.5208V9.71078H55.6399V14.6532H41.9202V15.5965H55.6399V17.6883H40.9563C40.4641 17.6883 40.1087 17.5721 39.8899 17.3397C39.6438 17.0936 39.5208 16.6903 39.5208 16.1297V12.6639H53.2405ZM66.1572 3.7225V2.49203H58.6308V0.420746H68.5566V5.73227H61.0302V6.96274H70.3202V9.03403H60.0663C59.5878 9.03403 59.2323 8.91782 58.9999 8.68539C58.7538 8.42563 58.6308 8.00864 58.6308 7.43442V3.7225H66.1572ZM68.331 2.67661H72.3505V0.420746H74.7499V9.52621H72.3505V4.7684H68.331V2.67661ZM59.4101 16.1297V10.5516H61.7685V11.9461H72.371V10.5516H74.7499V16.1297C74.7499 16.6903 74.62 17.0936 74.3603 17.3397C74.1415 17.5721 73.7929 17.6883 73.3144 17.6883H60.8456C60.3671 17.6883 60.0116 17.5721 59.7792 17.3397C59.5331 17.0936 59.4101 16.6903 59.4101 16.1297ZM72.371 15.5965V13.9559H61.7685V15.5965H72.371Z" fill="#909090"/>
</svg>
