<svg width="24" height="24" viewBox="0 0 24 24" fill="none" xmlns="http://www.w3.org/2000/svg">
<mask id="mask0_146_1910" style="mask-type:alpha" maskUnits="userSpaceOnUse" x="0" y="0" width="24" height="24">
<rect width="24" height="24" fill="#D9D9D9"/>
</mask>
<g mask="url(#mask0_146_1910)">
<path d="M2.88235 20C2.63235 20 2.42284 19.9152 2.25382 19.7457C2.08461 19.5763 2 19.3663 2 19.1156C2 18.8651 2.08461 18.6551 2.25382 18.4858C2.42284 18.3166 2.63235 18.232 2.88235 18.232H21.1176C21.3676 18.232 21.5772 18.3167 21.7462 18.4861C21.9154 18.6556 22 18.8657 22 19.1164C22 19.367 21.9154 19.5769 21.7462 19.7463C21.5772 19.9154 21.3676 20 21.1176 20H2.88235ZM2.88235 12.8841C2.63235 12.8841 2.42284 12.7994 2.25382 12.6298C2.08461 12.4602 2 12.2502 2 11.9997C2 11.749 2.08461 11.5391 2.25382 11.3699C2.42284 11.2005 2.63235 11.1159 2.88235 11.1159H21.1176C21.3676 11.1159 21.5772 11.2006 21.7462 11.3702C21.9154 11.5398 22 11.7498 22 12.0003C22 12.251 21.9154 12.4609 21.7462 12.6301C21.5772 12.7995 21.3676 12.8841 21.1176 12.8841H2.88235ZM2.88235 5.76799C2.63235 5.76799 2.42284 5.68331 2.25382 5.51395C2.08461 5.34439 2 5.13426 2 4.88355C2 4.63305 2.08461 4.42311 2.25382 4.25375C2.42284 4.08458 2.63235 4 2.88235 4H21.1176C21.3676 4 21.5772 4.08478 21.7462 4.25434C21.9154 4.4237 22 4.63374 22 4.88444C22 5.13495 21.9154 5.34488 21.7462 5.51424C21.5772 5.68341 21.3676 5.76799 21.1176 5.76799H2.88235Z" fill="#1C1B1F"/>
</g>
</svg>
