<svg width="26" height="26" viewBox="0 0 26 26" fill="none" xmlns="http://www.w3.org/2000/svg">
<g clip-path="url(#clip0_1253_41119)">
<path d="M13.0002 25.8879C20.118 25.8879 25.8882 20.1178 25.8882 13C25.8882 5.88218 20.118 0.112061 13.0002 0.112061C5.88243 0.112061 0.112305 5.88218 0.112305 13C0.112305 20.1178 5.88243 25.8879 13.0002 25.8879Z" fill="#D8D8D8"/>
<path fill-rule="evenodd" clip-rule="evenodd" d="M21.7229 20.3715C21.7587 20.3827 21.7932 20.3939 21.8294 20.4044C20.7611 21.6789 19.4295 22.7069 17.9262 23.418C16.4229 24.1291 14.7835 24.5063 13.1206 24.5238C11.4577 24.5413 9.81072 24.1986 8.29281 23.5192C6.7749 22.8399 5.42203 21.84 4.32715 20.5883C4.39439 20.5787 4.46163 20.568 4.52966 20.5582C4.51408 20.5416 4.49828 20.5256 4.48292 20.5086C4.54568 20.4145 4.33981 20.62 4.45334 20.4665C6.14154 17.3549 9.21134 15.5776 13.0002 15.5776C16.6728 15.5776 19.8748 17.2138 21.611 20.1691C21.7616 20.3699 21.6391 20.2577 21.7229 20.3715ZM13.0002 14.1207C12.1136 14.1207 11.2469 13.8578 10.5097 13.3652C9.77249 12.8726 9.19793 12.1725 8.85864 11.3534C8.51935 10.5343 8.43057 9.63297 8.60354 8.7634C8.77651 7.89383 9.20345 7.09508 9.83038 6.46815C10.4573 5.84123 11.2561 5.41429 12.1256 5.24132C12.9952 5.06835 13.8965 5.15712 14.7156 5.49641C15.5348 5.8357 16.2349 6.41027 16.7274 7.14746C17.22 7.88464 17.4829 8.75134 17.4829 9.63794C17.4829 10.2266 17.367 10.8095 17.1417 11.3534C16.9164 11.8973 16.5862 12.3915 16.17 12.8077C15.7537 13.224 15.2595 13.5542 14.7156 13.7795C14.1718 14.0048 13.5889 14.1207 13.0002 14.1207Z" fill="white"/>
</g>
<defs>
<clipPath id="clip0_1253_41119">
<rect width="26" height="26" fill="white"/>
</clipPath>
</defs>
</svg>
