<svg width="24" height="24" viewBox="0 0 24 24" fill="none" xmlns="http://www.w3.org/2000/svg">
<mask id="mask0_146_1907" style="mask-type:alpha" maskUnits="userSpaceOnUse" x="0" y="0" width="24" height="24">
<rect width="24" height="24" fill="#D9D9D9"/>
</mask>
<g mask="url(#mask0_146_1907)">
<path d="M11.0939 18.5946C13.1623 18.5946 14.9276 17.8658 16.3897 16.4081C17.8519 14.9505 18.5829 13.1812 18.5829 11.1003C18.5829 9.03041 17.8519 7.26389 16.3897 5.8007C14.9276 4.33752 13.1623 3.60593 11.0939 3.60593C9.0144 3.60593 7.24636 4.33752 5.78974 5.8007C4.33311 7.26389 3.6048 9.03041 3.6048 11.1003C3.6048 13.1812 4.33311 14.9505 5.78974 16.4081C7.24636 17.8658 9.0144 18.5946 11.0939 18.5946ZM11.0939 20.2006C9.83196 20.2006 8.64967 19.9617 7.54699 19.484C6.44414 19.0064 5.4826 18.3571 4.66236 17.5363C3.84213 16.7155 3.19335 15.7533 2.71601 14.6497C2.23867 13.5462 2 12.3631 2 11.1003C2 9.84854 2.23867 8.67086 2.71601 7.56723C3.19335 6.4636 3.84213 5.4987 4.66236 4.67254C5.4826 3.8462 6.44414 3.19419 7.54699 2.71651C8.64967 2.23884 9.83196 2 11.0939 2C12.3447 2 13.5216 2.23884 14.6244 2.71651C15.7273 3.19419 16.6915 3.8462 17.5171 4.67254C18.3428 5.4987 18.9944 6.4636 19.4717 7.56723C19.9491 8.67086 20.1877 9.84854 20.1877 11.1003C20.1877 12.2148 19.9988 13.2669 19.621 14.2565C19.243 15.2461 18.7207 16.1431 18.0542 16.9475L21.7741 20.67C21.9331 20.8292 22.0082 21.0138 21.9993 21.2238C21.9904 21.4338 21.9064 21.6184 21.7473 21.7776C21.5881 21.9259 21.4019 22 21.1886 22C20.9753 22 20.7892 21.9259 20.6301 21.7776L16.9206 18.0818C16.1168 18.749 15.2204 19.2688 14.2315 19.6414C13.2426 20.0142 12.1967 20.2006 11.0939 20.2006Z" fill="#1C1B1F"/>
</g>
</svg>
